0
SECTION
2
HEADER
9
$INSUNITS
70
4
9
$ACADVER
1
AC1014
9
$HANDSEED
5
FFFF
0
ENDSEC
0
SECTION
2
TABLES
0
TABLE
2
VPORT
5
8
100
AcDbSymbolTable
0
ENDTAB
0
TABLE
2
LTYPE
5
5
100
AcDbSymbolTable
0
LTYPE
5
14
100
AcDbSymbolTableRecord
100
AcDbLinetypeTableRecord
2
BYBLOCK
70
0
0
LTYPE
5
15
100
AcDbSymbolTableRecord
100
AcDbLinetypeTableRecord
2
BYLAYER
70
0
0
ENDTAB
0
TABLE
2
LAYER
5
2
100
AcDbSymbolTable
70
2
0
LAYER
5
50
100
AcDbSymbolTableRecord
100
AcDbLayerTableRecord
2
0
70
0
6
CONTINUOUS
0
ENDTAB
0
TABLE
2
STYLE
5
3
100
AcDbSymbolTable
70
1
0
STYLE
5
11
100
AcDbSymbolTableRecord
100
AcDbTextStyleTableRecord
2
STANDARD
70
0
0
ENDTAB
0
TABLE
2
VIEW
5
6
100
AcDbSymbolTable
70
0
0
ENDTAB
0
TABLE
2
UCS
5
7
100
AcDbSymbolTable
70
0
0
ENDTAB
0
TABLE
2
APPID
5
9
100
AcDbSymbolTable
70
2
0
APPID
5
12
100
AcDbSymbolTableRecord
100
AcDbRegAppTableRecord
2
ACAD
70
0
0
ENDTAB
0
TABLE
2
DIMSTYLE
5
A
100
AcDbSymbolTable
70
1
0
ENDTAB
0
TABLE
2
BLOCK_RECORD
5
1
100
AcDbSymbolTable
70
1
0
BLOCK_RECORD
5
1F
100
AcDbSymbolTableRecord
100
AcDbBlockTableRecord
2
*MODEL_SPACE
0
BLOCK_RECORD
5
1B
100
AcDbSymbolTableRecord
100
AcDbBlockTableRecord
2
*PAPER_SPACE
0
ENDTAB
0
ENDSEC
0
SECTION
2
BLOCKS
0
BLOCK
5
20
100
AcDbEntity
100
AcDbBlockBegin
2
*MODEL_SPACE
0
ENDBLK
5
21
100
AcDbEntity
100
AcDbBlockEnd
0
BLOCK
5
1C
100
AcDbEntity
100
AcDbBlockBegin
2
*PAPER_SPACE
0
ENDBLK
5
1D
100
AcDbEntity
100
AcDbBlockEnd
0
ENDSEC
0
SECTION
2
ENTITIES
0
LWPOLYLINE
5
100
100
AcDbEntity
8
0
100
AcDbPolyline
90
36
70
1
43
0.0
10
0.49999999999999989
20
-548.5
42
0.41421356237309503
10
2.5
20
-550.5
10
30.11803398875
20
-550.5
10
90.5
20
-580.69098300559995
10
90.5
20
-611.30901699440005
10
30.11803398875
20
-641.5
10
2.5
20
-641.5
42
0.41421356237309503
10
0.49999999999999989
20
-643.50000000000011
10
0.49999999999999989
20
-782.5
42
0.41421356237309503
10
2.5
20
-784.5
10
30.207106781190003
20
-784.5
10
90.5
20
-844.79289321880003
10
90.5
20
-872.5
42
0.41421356237309503
10
92.5
20
-874.5
10
572.5
20
-874.5
42
0.41421356237309503
10
574.5
20
-872.5
10
574.5
20
-844.79289321880003
10
634.79289321880003
20
-784.5
10
662.5
20
-784.5
42
0.41421356237309503
10
664.5
20
-782.5
10
664.5
20
-642.5
42
0.41421356237309503
10
662.5
20
-640.5
10
634.88196601130005
20
-640.5
10
574.5
20
-610.30901699440005
10
574.5
20
-579.69098300559995
10
587.5
20
-573.19098300559995
10
587.5
20
-43.207106781189992
10
574.5
20
-30.207106781190003
10
574.5
20
-2.5
42
0.41421356237309503
10
572.5
20
-0.49999999999999989
10
92.5
20
-0.49999999999999989
42
0.41421356237309503
10
90.5
20
-2.5
10
90.5
20
-30.207106781190003
10
30.207106781190003
20
-90.5
10
2.5
20
-90.5
42
0.41421356237309503
10
0.49999999999999989
20
-92.5
0
LWPOLYLINE
5
101
100
AcDbEntity
8
0
100
AcDbPolyline
90
2
70
1
43
0.0
10
101.94058829184183
20
-596.00000000001023
42
1.2747548783938187
10
108.05941170815817
20
-596.00000000001023
42
1.2747548784020715
0
LWPOLYLINE
5
102
100
AcDbEntity
8
0
100
AcDbPolyline
90
2
70
1
43
0.0
10
563.05941170815822
20
-595.99999999998977
42
1.2747548783937865
10
556.94058829184178
20
-595.99999999998977
42
1.2747548784020968
0
LWPOLYLINE
5
103
100
AcDbEntity
8
0
100
AcDbPolyline
90
2
70
1
43
0.0
10
335.55941170815822
20
-595.99999999998977
42
1.2747548783937865
10
329.44058829184178
20
-595.99999999998977
42
1.2747548784020968
0
CIRCLE
5
104
100
AcDbEntity
8
0
100
AcDbCircle
10
105
20
-860
30
0
40
3.1499999999999999
210
0
220
0
230
1
0
CIRCLE
5
105
100
AcDbEntity
8
0
100
AcDbCircle
10
558
20
-860
30
0
40
3.1499999999999999
210
0
220
0
230
1
0
CIRCLE
5
106
100
AcDbEntity
8
0
100
AcDbCircle
10
650
20
-713
30
0
40
3.1499999999999999
210
0
220
0
230
1
0
CIRCLE
5
107
100
AcDbEntity
8
0
100
AcDbCircle
10
15
20
-536
30
0
40
3.1499999999999999
210
0
220
0
230
1
0
CIRCLE
5
108
100
AcDbEntity
8
0
100
AcDbCircle
10
105
20
-15
30
0
40
3.1499999999999999
210
0
220
0
230
1
0
CIRCLE
5
109
100
AcDbEntity
8
0
100
AcDbCircle
10
558
20
-15
30
0
40
3.1499999999999999
210
0
220
0
230
1
0
CIRCLE
5
110
100
AcDbEntity
8
0
100
AcDbCircle
10
15
20
-105
30
0
40
3.1499999999999999
210
0
220
0
230
1
0
CIRCLE
5
111
100
AcDbEntity
8
0
100
AcDbCircle
10
332.5
20
-15
30
0
40
3.1499999999999999
210
0
220
0
230
1
0
CIRCLE
5
112
100
AcDbEntity
8
0
100
AcDbCircle
10
332.5
20
-860
30
0
40
3.1499999999999999
210
0
220
0
230
1
0
CIRCLE
5
113
100
AcDbEntity
8
0
100
AcDbCircle
10
15
20
-320.50000000000006
30
0
40
3.1499999999999999
210
0
220
0
230
1
0
CIRCLE
5
114
100
AcDbEntity
8
0
100
AcDbCircle
10
573
20
-320.50000000000006
30
0
40
3.1499999999999999
210
0
220
0
230
1
0
CIRCLE
5
115
100
AcDbEntity
8
0
100
AcDbCircle
10
573
20
-536
30
0
40
3.1499999999999999
210
0
220
0
230
1
0
CIRCLE
5
116
100
AcDbEntity
8
0
100
AcDbCircle
10
573
20
-105
30
0
40
3.1499999999999999
210
0
220
0
230
1
0
CIRCLE
5
117
100
AcDbEntity
8
0
100
AcDbCircle
10
15
20
-713
30
0
40
3.1499999999999999
210
0
220
0
230
1
0
ENDSEC
0
SECTION
2
OBJECTS
0
DICTIONARY
5
C
100
AcDbDictionary
3
ACAD_GROUP
350
D
3
ACAD_MLINESTYLE
350
17
0
DICTIONARY
5
D
100
AcDbDictionary
0
DICTIONARY
5
1A
330
C
100
AcDbDictionary
0
DICTIONARY
5
17
100
AcDbDictionary
0
ENDSEC
0
EOF
