0
SECTION
2
HEADER
9
$INSUNITS
70
4
9
$ACADVER
1
AC1014
9
$HANDSEED
5
FFFF
0
ENDSEC
0
SECTION
2
TABLES
0
TABLE
2
VPORT
5
8
100
AcDbSymbolTable
0
ENDTAB
0
TABLE
2
LTYPE
5
5
100
AcDbSymbolTable
0
LTYPE
5
14
100
AcDbSymbolTableRecord
100
AcDbLinetypeTableRecord
2
BYBLOCK
70
0
0
LTYPE
5
15
100
AcDbSymbolTableRecord
100
AcDbLinetypeTableRecord
2
BYLAYER
70
0
0
ENDTAB
0
TABLE
2
LAYER
5
2
100
AcDbSymbolTable
70
2
0
LAYER
5
50
100
AcDbSymbolTableRecord
100
AcDbLayerTableRecord
2
0
70
0
6
CONTINUOUS
0
ENDTAB
0
TABLE
2
STYLE
5
3
100
AcDbSymbolTable
70
1
0
STYLE
5
11
100
AcDbSymbolTableRecord
100
AcDbTextStyleTableRecord
2
STANDARD
70
0
0
ENDTAB
0
TABLE
2
VIEW
5
6
100
AcDbSymbolTable
70
0
0
ENDTAB
0
TABLE
2
UCS
5
7
100
AcDbSymbolTable
70
0
0
ENDTAB
0
TABLE
2
APPID
5
9
100
AcDbSymbolTable
70
2
0
APPID
5
12
100
AcDbSymbolTableRecord
100
AcDbRegAppTableRecord
2
ACAD
70
0
0
ENDTAB
0
TABLE
2
DIMSTYLE
5
A
100
AcDbSymbolTable
70
1
0
ENDTAB
0
TABLE
2
BLOCK_RECORD
5
1
100
AcDbSymbolTable
70
1
0
BLOCK_RECORD
5
1F
100
AcDbSymbolTableRecord
100
AcDbBlockTableRecord
2
*MODEL_SPACE
0
BLOCK_RECORD
5
1B
100
AcDbSymbolTableRecord
100
AcDbBlockTableRecord
2
*PAPER_SPACE
0
ENDTAB
0
ENDSEC
0
SECTION
2
BLOCKS
0
BLOCK
5
20
100
AcDbEntity
100
AcDbBlockBegin
2
*MODEL_SPACE
0
ENDBLK
5
21
100
AcDbEntity
100
AcDbBlockEnd
0
BLOCK
5
1C
100
AcDbEntity
100
AcDbBlockBegin
2
*PAPER_SPACE
0
ENDBLK
5
1D
100
AcDbEntity
100
AcDbBlockEnd
0
ENDSEC
0
SECTION
2
ENTITIES
0
LWPOLYLINE
5
100
100
AcDbEntity
8
0
100
AcDbPolyline
90
24
70
1
43
0.0
10
599.5
20
-92.5
42
0.41421356237309503
10
597.5
20
-90.5
10
569.79289321880003
20
-90.5
10
509.5
20
-30.207106781190003
10
509.5
20
-2.5
42
0.41421356237309503
10
507.5
20
-0.49999999999999989
10
92.5
20
-0.49999999999999989
42
0.41421356237309503
10
90.5
20
-2.5
10
90.5
20
-30.207106781190003
10
30.207106781190003
20
-90.5
10
2.5
20
-90.5
42
0.41421356237309503
10
0.49999999999999989
20
-92.5
10
0.49999999999999989
20
-572.5
42
0.41421356237309503
10
2.5
20
-574.5
10
30.207106781190003
20
-574.5
10
90.5
20
-634.79289321880003
10
90.5
20
-662.5
42
0.41421356237309503
10
92.5
20
-664.5
10
507.5
20
-664.5
42
0.41421356237309503
10
509.5
20
-662.5
10
509.5
20
-634.79289321880003
10
569.79289321880003
20
-574.5
10
597.5
20
-574.5
42
0.41421356237309503
10
599.5
20
-572.5
0
LWPOLYLINE
5
101
100
AcDbEntity
8
0
100
AcDbPolyline
90
8
70
1
43
0.0
10
581
20
-208.5
10
581.00000000000011
20
-192.00000000000003
42
-0.41421356237309503
10
583
20
-190.00000000000003
10
587
20
-190
42
-0.41421356237309503
10
589
20
-192.00000000000003
10
589
20
-208.5
42
-0.41421356237309503
10
587
20
-210.5
10
583
20
-210.50000000000006
42
-0.41421356237309503
0
LWPOLYLINE
5
102
100
AcDbEntity
8
0
100
AcDbPolyline
90
8
70
1
43
0.0
10
410
20
-13
10
410.00000000000006
20
-17
42
-0.41421356237309503
10
408.00000000000006
20
-19
10
391.50000000000006
20
-19.000000000000028
42
-0.41421356237309503
10
389.5
20
-17
10
389.5
20
-13
42
-0.41421356237309503
10
391.50000000000006
20
-11
10
408.00000000000006
20
-11.000000000000043
42
-0.41421356237309503
0
LWPOLYLINE
5
103
100
AcDbEntity
8
0
100
AcDbPolyline
90
8
70
1
43
0.0
10
190
20
-17
10
190.00000000000003
20
-13
42
-0.41421356237309503
10
192.00000000000003
20
-11
10
208.5
20
-11.000000000000007
42
-0.41421356237309503
10
210.5
20
-13
10
210.5
20
-17
42
-0.41421356237309503
10
208.5
20
-19
10
192.00000000000003
20
-19.000000000000028
42
-0.41421356237309503
0
LWPOLYLINE
5
104
100
AcDbEntity
8
0
100
AcDbPolyline
90
8
70
1
43
0.0
10
11
20
-208.5
10
11.000000000000007
20
-192.00000000000003
42
-0.41421356237309503
10
13
20
-190.00000000000003
10
17
20
-190.00000000000003
42
-0.41421356237309503
10
19
20
-192.00000000000003
10
18.999999999999993
20
-208.5
42
-0.41421356237309503
10
17
20
-210.5
10
13
20
-210.5
42
-0.41421356237309503
0
LWPOLYLINE
5
105
100
AcDbEntity
8
0
100
AcDbPolyline
90
8
70
1
43
0.0
10
13
20
-454.5
10
17
20
-454.5
42
-0.41421356237309503
10
19
20
-456.50000000000006
10
19.000000000000028
20
-473.00000000000006
42
-0.41421356237309503
10
17
20
-475.00000000000006
10
13
20
-475.00000000000006
42
-0.41421356237309503
10
11
20
-473.00000000000006
10
10.999999999999972
20
-456.50000000000006
42
-0.41421356237309503
0
LWPOLYLINE
5
106
100
AcDbEntity
8
0
100
AcDbPolyline
90
8
70
1
43
0.0
10
190
20
-652
10
190
20
-648
42
-0.41421356237309503
10
192.00000000000003
20
-646
10
208.5
20
-646
42
-0.41421356237309503
10
210.5
20
-648
10
210.50000000000006
20
-652
42
-0.41421356237309503
10
208.5
20
-654
10
192.00000000000003
20
-654
42
-0.41421356237309503
0
LWPOLYLINE
5
107
100
AcDbEntity
8
0
100
AcDbPolyline
90
8
70
1
43
0.0
10
408.00000000000006
20
-654
10
391.50000000000006
20
-654
42
-0.41421356237309503
10
389.5
20
-652
10
389.5
20
-648
42
-0.41421356237309503
10
391.50000000000006
20
-646
10
408.00000000000006
20
-646
42
-0.41421356237309503
10
410.00000000000006
20
-648
10
410.00000000000006
20
-652
42
-0.41421356237309503
0
LWPOLYLINE
5
108
100
AcDbEntity
8
0
100
AcDbPolyline
90
8
70
1
43
0.0
10
583
20
-454.5
10
587
20
-454.5
42
-0.41421356237309503
10
589
20
-456.50000000000006
10
589
20
-473.00000000000006
42
-0.41421356237309503
10
587
20
-475.00000000000006
10
583
20
-475.00000000000006
42
-0.41421356237309503
10
581
20
-473.00000000000006
10
581
20
-456.50000000000006
42
-0.41421356237309503
0
ENDSEC
0
SECTION
2
OBJECTS
0
DICTIONARY
5
C
100
AcDbDictionary
3
ACAD_GROUP
350
D
3
ACAD_MLINESTYLE
350
17
0
DICTIONARY
5
D
100
AcDbDictionary
0
DICTIONARY
5
1A
330
C
100
AcDbDictionary
0
DICTIONARY
5
17
100
AcDbDictionary
0
ENDSEC
0
EOF
